# xmcd
#
# Track frame offsets:
#	150
#	21226
#	36950
#	55670
#	68702
#	86981
#	104008
#	122434
#	140070
#	158654
#	175089
#	192163
#	209970
#	234530
#	249641
#	272618
#	289829
#	308944
#
# Disc length: 4383
#
# Revision: 1
# Processed by: cddbd v1.5.1PL0 Copyright (c) Steve Scherf et al.
# Submitted via: CDex 1.51
# Normalized: r0:TDELIM( - )
#
DISCID=10111d12
DTITLE=Various Artist - Viva Cuba
DYEAR=1900
DGENRE=Salsa
TTITLE0=Matilda - Carlos Manuel y su Clan
TTITLE1=Guantanamera - Dan Den
TTITLE2=Quiero quiero - SBS
TTITLE3=Toma que toma - Los Ninos
TTITLE4=A lo cubano - Orishas
TTITLE5=Hasta Siempre - Carlos Puebla
TTITLE6=Follow the lider - SBS
TTITLE7=Te gusta tequilate gusta cerveza - SBS
TTITLE8=Tu carinito - Puertorican Band
TTITLE9=Fiesta - Lou Prince
TTITLE10=Ya soy malo Carlos - Carlos Manuel y su Clan
TTITLE11=Mueve la colita - Club Latino
TTITLE12=El negro esta cocinando - Los Van Van
TTITLE13=La Bomba - King Africa
TTITLE14=La vida es un carnival - Isaac Delgado
TTITLE15=Ritmo vuelta - Los Logos
TTITLE16=Chan chan - Company cegundo
TTITLE17=A puro dolor - Son by four
EXTD=
EXTT0=
EXTT1=
EXTT2=
EXTT3=
EXTT4=
EXTT5=
EXTT6=
EXTT7=
EXTT8=
EXTT9=
EXTT10=
EXTT11=
EXTT12=
EXTT13=
EXTT14=
EXTT15=
EXTT16=
EXTT17=
PLAYORDER=
